# xmcd
#
# Track frame offsets:
#	187
#	20260
#	36715
#	60790
#	81937
#	106350
#	127962
#	146425
#	166232
#	182810
#	204815
#	227752
#	246430
#	268525
#	290200
#
# Disc length: 4323 seconds
#
# Revision: 1
# Processed by: cddbd v1.5.1PL0 Copyright (c) Steve Scherf et al.
# Submitted via: CDex 1.50Beta5
#
DISCID=d110e10f
DTITLE=やしきたかじん - やしきたかじん〈New Best One〉
DYEAR=2001
DGENRE=Pop
TTITLE0=やっぱ好きやねん
TTITLE1=Guilty
TTITLE2=順子
TTITLE3=ゆめいらんかね
TTITLE4=大阪恋物語
TTITLE5=哀しみのAgain
TTITLE6=未練〜STILL〜
TTITLE7=ラブ・イズ・オーヴァー
TTITLE8=愛したあとからメランコリー
TTITLE9=ICHIZU
TTITLE10=雨の日はバラードで
TTITLE11=あんた
TTITLE12=なめとんか
TTITLE13=愛することを学ぶのに
TTITLE14=Too far away
EXTD=
EXTT0=
EXTT1=
EXTT2=
EXTT3=
EXTT4=
EXTT5=
EXTT6=
EXTT7=
EXTT8=
EXTT9=
EXTT10=
EXTT11=
EXTT12=
EXTT13=
EXTT14=
PLAYORDER=
